<?xml version="1.0" encoding="UTF-8"?>
<svg xmlns="http://www.w3.org/2000/svg" xmlns:xlink="http://www.w3.org/1999/xlink" width="25px" height="25px" viewBox="0 0 25 25" version="1.1">
<g id="surface1">
<path style=" stroke:none;fill-rule:evenodd;fill:rgb(0%,0%,0%);fill-opacity:1;" d="M 18.785156 1.078125 C 20.214844 -0.351562 22.542969 -0.359375 23.980469 1.0625 C 25.417969 2.484375 25.425781 4.796875 23.996094 6.222656 L 17.714844 12.492188 L 24 18.761719 C 25.421875 20.179688 25.402344 22.476562 23.957031 23.894531 C 22.515625 25.308594 20.195312 25.304688 18.777344 23.886719 L 12.535156 17.660156 L 6.28125 23.898438 C 4.847656 25.328125 2.523438 25.335938 1.082031 23.914062 C -0.355469 22.492188 -0.363281 20.179688 1.070312 18.75 L 7.347656 12.484375 L 1.0625 6.214844 C -0.355469 4.792969 -0.335938 2.496094 1.105469 1.082031 C 2.546875 -0.332031 4.867188 -0.332031 6.285156 1.085938 L 12.527344 7.316406 Z M 18.785156 1.078125 "/>
</g>
</svg>
